<svg id="SvgjsSvg1001" width="256" height="256" xmlns="http://www.w3.org/2000/svg" version="1.1" xmlns:xlink="http://www.w3.org/1999/xlink" xmlns:svgjs="http://svgjs.com/svgjs"><g id="SvgjsG1008"><svg xmlns="http://www.w3.org/2000/svg" fill-rule="evenodd" stroke-linejoin="round" stroke-miterlimit="2" clip-rule="evenodd" viewBox="0 0 64 64" width="256" height="256"><path fill="url(#a)" d="M14.387 32.075V8.71a1 1 0 0 1 1-1h22.554l11.446 12.692v15.953s.004 1.215-.097 3.083l-5.631-2.043a2 2 0 0 0-1.973.353l-3.032 2.563a2 2 0 0 1-1.841.396L30.839 39l5.769 4.121a2 2 0 0 0 2.412-.066l2.931-2.345a2.003 2.003 0 0 1 1.952-.311l5.176 1.941c-.397 4.314-1.309 9.971-3.398 13.483a.998.998 0 0 1-.843.464c-3.827.003-26.548.003-32.899.003a1 1 0 0 1-.882-1.469c3.103-6.738 3.33-18.466 3.33-18.466v-1.311l4.388-1.645a2 2 0 0 1 1.951.311l2.932 2.345a2 2 0 0 0 2.412.066L31.839 32l-5.974 1.707a2 2 0 0 1-1.841-.396l-3.032-2.563a2 2 0 0 0-1.973-.353l-4.632 1.68Z"></path><path fill="url(#b)" d="m48.579 42.153.501.2c-.397 4.314-1.309 9.976-3.399 13.49a.998.998 0 0 1-.843.464c-3.827.003-26.548.003-32.899.003a1 1 0 0 1-.882-1.47l.039-.086c12.314.579 30.196-1.578 32.551-2.5 1.75-.685 3.818-5.465 4.932-10.101Z"></path><path fill="url(#c)" d="M49.387 20.402c-3.035-1.199-6.25-1.233-9.549-.723a.997.997 0 0 1-1.146-1.091c.362-3.694-.003-7.308-.751-10.878 4.838 3.591 8.659 7.819 11.446 12.692Z"></path><path fill="url(#d)" d="m6.078 23.778 5 5.87a.999.999 0 1 0 1.522-1.296l-5-5.87a1 1 0 1 0-1.522 1.296Z"></path><path fill="url(#e)" d="m6.132 32.504 3.549.951a1 1 0 0 0 .518-1.932l-3.549-.951a1 1 0 0 0-.518 1.932Z"></path><path fill="url(#f)" d="m5.661 40.729 6.678-3.856a1 1 0 0 0-1-1.732l-6.678 3.856a1 1 0 0 0 1 1.732Z"></path><path fill="url(#g)" d="m57.922 51.214-5-5.87a1 1 0 0 0-1.522 1.297l5 5.87a1 1 0 0 0 1.522-1.297Z"></path><path fill="url(#h)" d="m57.868 42.489-3.549-.951a1 1 0 0 0-.518 1.932l3.549.951a1 1 0 0 0 .518-1.932Z"></path><path fill="url(#i)" d="m58.339 34.264-6.678 3.855a1 1 0 0 0 1 1.732l6.678-3.855a1 1 0 0 0-1-1.732Z"></path><path fill="url(#j)" d="m19.864 16.9 3.536 3.536a1 1 0 0 0 1.414-1.415l-3.536-3.535a1 1 0 0 0-1.414 1.414Z"></path><path fill="url(#k)" d="m23.4 15.486-3.536 3.535a1 1 0 0 0 1.414 1.415l3.536-3.536a1 1 0 0 0-1.414-1.414Z"></path><path fill="url(#l)" d="m30.864 16.9 3.536 3.536a1 1 0 0 0 1.414-1.415l-3.536-3.535a1 1 0 0 0-1.414 1.414Z"></path><path fill="url(#m)" d="m34.4 15.486-3.536 3.535a1 1 0 0 0 1.414 1.415l3.536-3.536a1 1 0 0 0-1.414-1.414Z"></path><path fill="url(#n)" d="m22.438 26.409 1.403-1.051 1.397 1.05a1 1 0 0 0 1.201 0l1.4-1.05 1.4 1.05a.999.999 0 0 0 1.2 0l1.4-1.05 1.4 1.05a1 1 0 0 0 1.2-1.6l-1.999-1.5a1.002 1.002 0 0 0-1.2 0l-1.401 1.05-1.4-1.05a1.002 1.002 0 0 0-1.2 0l-1.4 1.05-1.396-1.049a.999.999 0 0 0-1.2-.001l-2.003 1.5a1.001 1.001 0 0 0-.202 1.4c.331.441.958.532 1.4.201Z"></path><defs><linearGradient id="a" x1="0" x2="1" y1="0" y2="0" gradientTransform="matrix(38.4475 0 0 48.5806 10.94 32)" gradientUnits="userSpaceOnUse"><stop offset="0" stop-color="#e9f3fc" class="stopColore9f3fc svgShape"></stop><stop offset="1" stop-color="#cadcf0" class="stopColorcadcf0 svgShape"></stop></linearGradient><linearGradient id="b" x1="0" x2="1" y1="0" y2="0" gradientTransform="matrix(38.1404 0 0 14.1574 10.94 49.231)" gradientUnits="userSpaceOnUse"><stop offset="0" stop-color="#cadcf0" class="stopColorcadcf0 svgShape"></stop><stop offset="1" stop-color="#a4bbdb" class="stopColora4bbdb svgShape"></stop></linearGradient><linearGradient id="c" x1="0" x2="1" y1="0" y2="0" gradientTransform="matrix(11.446 0 0 12.6921 37.941 14.056)" gradientUnits="userSpaceOnUse"><stop offset="0" stop-color="#559aff" class="stopColor559aff svgShape"></stop><stop offset="1" stop-color="#2e69ef" class="stopColor2e69ef svgShape"></stop></linearGradient><linearGradient id="d" x1="0" x2="1" y1="0" y2="0" gradientTransform="matrix(6.99966 0 0 7.86972 5.84 26.065)" gradientUnits="userSpaceOnUse"><stop offset="0" stop-color="#559aff" class="stopColor559aff svgShape"></stop><stop offset="1" stop-color="#2e69ef" class="stopColor2e69ef svgShape"></stop></linearGradient><linearGradient id="e" x1="0" x2="1" y1="0" y2="0" gradientTransform="matrix(5.76331 -3.97233 4.46609 6.4797 5.233 33.986)" gradientUnits="userSpaceOnUse"><stop offset="0" stop-color="#559aff" class="stopColor559aff svgShape"></stop><stop offset="1" stop-color="#2e69ef" class="stopColor2e69ef svgShape"></stop></linearGradient><linearGradient id="f" x1="0" x2="1" y1="0" y2="0" gradientTransform="matrix(1.26642 -6.88414 7.73984 1.42384 7.867 41.377)" gradientUnits="userSpaceOnUse"><stop offset="0" stop-color="#559aff" class="stopColor559aff svgShape"></stop><stop offset="1" stop-color="#2e69ef" class="stopColor2e69ef svgShape"></stop></linearGradient><linearGradient id="g" x1="0" x2="1" y1="0" y2="0" gradientTransform="rotate(172.622 30.265 22.466) scale(23.0718)" gradientUnits="userSpaceOnUse"><stop offset="0" stop-color="#347bfa" class="stopColor347bfa svgShape"></stop><stop offset="1" stop-color="#0044bf" class="stopColor0044bf svgShape"></stop></linearGradient><linearGradient id="h" x1="0" x2="1" y1="0" y2="0" gradientTransform="rotate(172.622 30.265 22.466) scale(23.0718)" gradientUnits="userSpaceOnUse"><stop offset="0" stop-color="#347bfa" class="stopColor347bfa svgShape"></stop><stop offset="1" stop-color="#0044bf" class="stopColor0044bf svgShape"></stop></linearGradient><linearGradient id="i" x1="0" x2="1" y1="0" y2="0" gradientTransform="rotate(172.622 30.265 22.466) scale(23.0718)" gradientUnits="userSpaceOnUse"><stop offset="0" stop-color="#347bfa" class="stopColor347bfa svgShape"></stop><stop offset="1" stop-color="#0044bf" class="stopColor0044bf svgShape"></stop></linearGradient><linearGradient id="j" x1="0" x2="1" y1="0" y2="0" gradientTransform="rotate(35.12 -14.897 40.712) scale(17.5254)" gradientUnits="userSpaceOnUse"><stop offset="0" stop-color="#559aff" class="stopColor559aff svgShape"></stop><stop offset="1" stop-color="#2e69ef" class="stopColor2e69ef svgShape"></stop></linearGradient><linearGradient id="k" x1="0" x2="1" y1="0" y2="0" gradientTransform="rotate(35.12 -14.897 40.712) scale(17.5254)" gradientUnits="userSpaceOnUse"><stop offset="0" stop-color="#559aff" class="stopColor559aff svgShape"></stop><stop offset="1" stop-color="#2e69ef" class="stopColor2e69ef svgShape"></stop></linearGradient><linearGradient id="l" x1="0" x2="1" y1="0" y2="0" gradientTransform="rotate(35.12 -14.897 40.712) scale(17.5254)" gradientUnits="userSpaceOnUse"><stop offset="0" stop-color="#559aff" class="stopColor559aff svgShape"></stop><stop offset="1" stop-color="#2e69ef" class="stopColor2e69ef svgShape"></stop></linearGradient><linearGradient id="m" x1="0" x2="1" y1="0" y2="0" gradientTransform="rotate(35.12 -14.897 40.712) scale(17.5254)" gradientUnits="userSpaceOnUse"><stop offset="0" stop-color="#559aff" class="stopColor559aff svgShape"></stop><stop offset="1" stop-color="#2e69ef" class="stopColor2e69ef svgShape"></stop></linearGradient><linearGradient id="n" x1="0" x2="1" y1="0" y2="0" gradientTransform="rotate(35.12 -14.897 40.712) scale(17.5254)" gradientUnits="userSpaceOnUse"><stop offset="0" stop-color="#559aff" class="stopColor559aff svgShape"></stop><stop offset="1" stop-color="#2e69ef" class="stopColor2e69ef svgShape"></stop></linearGradient></defs></svg></g></svg>